<svg xmlns="http://www.w3.org/2000/svg" viewBox="0 0 342.7 342.7">
  <path d="M276.1 210.3v-82.9c0-2.3 1.1-4.4 3-5.7 10.9-7 16.7-21.2 10.8-35.9-2.6-6.5-7.8-11.9-14.3-14.5-20.9-8.7-40.9 6.5-40.9 26.3s.2 4.2.7 6.2c.6 2.6 0 5.3-1.9 7.2l-52.6 57.8c-3.7 4-10 4-13.6 0l-51.8-57.9c-1.8-2-2.4-4.6-1.9-7.2 1.2-5.5.8-11.6-1.7-17.7-2.8-7-8.5-12.5-15.6-15.1-20.4-7.5-39.6 7.4-39.6 26.8S62 116.8 70 121.9c2.1 1.4 3.4 3.7 3.4 6.2v82c0 3-1.5 5.8-4 7.6-10.4 7.4-15.8 21.5-9.9 36 2.7 6.5 7.8 11.8 14.3 14.5 21.3 9 41.8-6.5 41.8-26.7s-5.2-19.1-13.1-24.4c-2.4-1.6-3.8-4.2-3.8-7.1v-81.1l63.8 71.3c.8.9 1.6 1.7 2.5 2.4.8.6 1.6 1.2 1.7 1.3 5 3.9 12.3 3.4 16.7-1.4l67.2-73.9v81.5c0 2.7-1.5 5.2-3.8 6.7-10.2 6.5-16.2 19.3-12.4 32.9 2.7 9.7 10.4 17.4 20.2 20 19.6 5.2 37.3-9.5 37.3-28.2s-4.7-18.3-11.9-23.6c-2.4-1.8-3.9-4.6-3.9-7.6" style="fill:none;stroke:#fff;stroke-miterlimit:10;stroke-width:4px"/>
</svg>
